<svg id="visual" viewBox="0 100 1920 1080" width="1920" height="1080" xmlns="http://www.w3.org/2000/svg" xmlns:xlink="http://www.w3.org/1999/xlink" version="1.1">
<rect x="0" y="0" width="1920" height="1080" fill="#001220"></rect>
<!-- <path d="M0 693L21.3 694.7C42.7 696.3 85.3 699.7 128 694.8C170.7 690 213.3 677 256 668C298.7 659 341.3 654 384 655.7C426.7 657.3 469.3 665.7 512 675.2C554.7 684.7 597.3 695.3 640 692.7C682.7 690 725.3 674 768 664.5C810.7 655 853.3 652 896 648.8C938.7 645.7 981.3 642.3 1024 652C1066.7 661.7 1109.3 684.3 1152 680.3C1194.7 676.3 1237.3 645.7 1280 639.7C1322.7 633.7 1365.3 652.3 1408 666.8C1450.7 681.3 1493.3 691.7 1536 686.5C1578.7 681.3 1621.3 660.7 1664 653.2C1706.7 645.7 1749.3 651.3 1792 655.7C1834.7 660 1877.3 663 1898.7 664.5L1920 666L1920 1081L1898.7 1081C1877.3 1081 1834.7 1081 1792 1081C1749.3 1081 1706.7 1081 1664 1081C1621.3 1081 1578.7 1081 1536 1081C1493.3 1081 1450.7 1081 1408 1081C1365.3 1081 1322.7 1081 1280 1081C1237.3 1081 1194.7 1081 1152 1081C1109.3 1081 1066.7 1081 1024 1081C981.3 1081 938.7 1081 896 1081C853.3 1081 810.7 1081 768 1081C725.3 1081 682.7 1081 640 1081C597.3 1081 554.7 1081 512 1081C469.3 1081 426.7 1081 384 1081C341.3 1081 298.7 1081 256 1081C213.3 1081 170.7 1081 128 1081C85.3 1081 42.7 1081 21.3 1081L0 1081Z" fill="#bcad40"></path> -->
<path d="M0 743L21.3 744.7C42.7 746.3 85.3 749.7 128 746.7C170.7 743.7 213.3 734.3 256 734.2C298.7 734 341.3 743 384 743.2C426.7 743.3 469.3 734.7 512 732.5C554.7 730.3 597.3 734.7 640 728.8C682.7 723 725.3 707 768 711.5C810.7 716 853.3 741 896 744.3C938.7 747.7 981.3 729.3 1024 723.8C1066.7 718.3 1109.3 725.7 1152 723.3C1194.7 721 1237.3 709 1280 704.7C1322.7 700.3 1365.3 703.7 1408 716.5C1450.7 729.3 1493.3 751.7 1536 753.5C1578.7 755.3 1621.3 736.7 1664 724.5C1706.7 712.3 1749.3 706.7 1792 711.5C1834.7 716.3 1877.3 731.7 1898.7 739.3L1920 747L1920 1081L1898.7 1081C1877.3 1081 1834.7 1081 1792 1081C1749.3 1081 1706.7 1081 1664 1081C1621.3 1081 1578.7 1081 1536 1081C1493.3 1081 1450.7 1081 1408 1081C1365.3 1081 1322.7 1081 1280 1081C1237.3 1081 1194.7 1081 1152 1081C1109.3 1081 1066.7 1081 1024 1081C981.3 1081 938.7 1081 896 1081C853.3 1081 810.7 1081 768 1081C725.3 1081 682.7 1081 640 1081C597.3 1081 554.7 1081 512 1081C469.3 1081 426.7 1081 384 1081C341.3 1081 298.7 1081 256 1081C213.3 1081 170.7 1081 128 1081C85.3 1081 42.7 1081 21.3 1081L0 1081Z" fill="#cd9b2a"></path>
<path d="M0 764L21.3 775.8C42.7 787.7 85.3 811.3 128 809.3C170.7 807.3 213.3 779.7 256 771.7C298.7 763.7 341.3 775.3 384 775.2C426.7 775 469.3 763 512 756.3C554.7 749.7 597.3 748.3 640 761C682.7 773.7 725.3 800.3 768 806.7C810.7 813 853.3 799 896 787.7C938.7 776.3 981.3 767.7 1024 762.8C1066.7 758 1109.3 757 1152 768.3C1194.7 779.7 1237.3 803.3 1280 811C1322.7 818.7 1365.3 810.3 1408 812.3C1450.7 814.3 1493.3 826.7 1536 820.7C1578.7 814.7 1621.3 790.3 1664 785.5C1706.7 780.7 1749.3 795.3 1792 796.5C1834.7 797.7 1877.3 785.3 1898.7 779.2L1920 773L1920 1081L1898.7 1081C1877.3 1081 1834.7 1081 1792 1081C1749.3 1081 1706.7 1081 1664 1081C1621.3 1081 1578.7 1081 1536 1081C1493.3 1081 1450.7 1081 1408 1081C1365.3 1081 1322.7 1081 1280 1081C1237.3 1081 1194.7 1081 1152 1081C1109.3 1081 1066.7 1081 1024 1081C981.3 1081 938.7 1081 896 1081C853.3 1081 810.7 1081 768 1081C725.3 1081 682.7 1081 640 1081C597.3 1081 554.7 1081 512 1081C469.3 1081 426.7 1081 384 1081C341.3 1081 298.7 1081 256 1081C213.3 1081 170.7 1081 128 1081C85.3 1081 42.7 1081 21.3 1081L0 1081Z" fill="#de8521"></path>
<path d="M0 906L21.3 894.2C42.7 882.3 85.3 858.7 128 848.5C170.7 838.3 213.3 841.7 256 846C298.7 850.3 341.3 855.7 384 852C426.7 848.3 469.3 835.7 512 841.2C554.7 846.7 597.3 870.3 640 869.8C682.7 869.3 725.3 844.7 768 831.8C810.7 819 853.3 818 896 831.8C938.7 845.7 981.3 874.3 1024 881.8C1066.7 889.3 1109.3 875.7 1152 875.2C1194.7 874.7 1237.3 887.3 1280 894.7C1322.7 902 1365.3 904 1408 902.5C1450.7 901 1493.3 896 1536 885.5C1578.7 875 1621.3 859 1664 860.7C1706.7 862.3 1749.3 881.7 1792 885C1834.7 888.3 1877.3 875.7 1898.7 869.3L1920 863L1920 1081L1898.7 1081C1877.3 1081 1834.7 1081 1792 1081C1749.3 1081 1706.7 1081 1664 1081C1621.3 1081 1578.7 1081 1536 1081C1493.3 1081 1450.7 1081 1408 1081C1365.3 1081 1322.7 1081 1280 1081C1237.3 1081 1194.7 1081 1152 1081C1109.3 1081 1066.7 1081 1024 1081C981.3 1081 938.7 1081 896 1081C853.3 1081 810.7 1081 768 1081C725.3 1081 682.7 1081 640 1081C597.3 1081 554.7 1081 512 1081C469.3 1081 426.7 1081 384 1081C341.3 1081 298.7 1081 256 1081C213.3 1081 170.7 1081 128 1081C85.3 1081 42.7 1081 21.3 1081L0 1081Z" fill="#ed6b29"></path>
<path d="M0 947L21.3 939.2C42.7 931.3 85.3 915.7 128 913.3C170.7 911 213.3 922 256 931.3C298.7 940.7 341.3 948.3 384 947.3C426.7 946.3 469.3 936.7 512 926C554.7 915.3 597.3 903.7 640 908C682.7 912.3 725.3 932.7 768 936.2C810.7 939.7 853.3 926.3 896 925.2C938.7 924 981.3 935 1024 934.7C1066.7 934.3 1109.3 922.7 1152 926.7C1194.7 930.7 1237.3 950.3 1280 952C1322.7 953.7 1365.3 937.3 1408 938C1450.7 938.7 1493.3 956.3 1536 951.8C1578.7 947.3 1621.3 920.7 1664 907.2C1706.7 893.7 1749.3 893.3 1792 901.2C1834.7 909 1877.3 925 1898.7 933L1920 941L1920 1081L1898.7 1081C1877.3 1081 1834.7 1081 1792 1081C1749.3 1081 1706.7 1081 1664 1081C1621.3 1081 1578.7 1081 1536 1081C1493.3 1081 1450.7 1081 1408 1081C1365.3 1081 1322.7 1081 1280 1081C1237.3 1081 1194.7 1081 1152 1081C1109.3 1081 1066.7 1081 1024 1081C981.3 1081 938.7 1081 896 1081C853.3 1081 810.7 1081 768 1081C725.3 1081 682.7 1081 640 1081C597.3 1081 554.7 1081 512 1081C469.3 1081 426.7 1081 384 1081C341.3 1081 298.7 1081 256 1081C213.3 1081 170.7 1081 128 1081C85.3 1081 42.7 1081 21.3 1081L0 1081Z" fill="#f9493c"></path>
<path d="M0 967L21.3 973.5C42.7 980 85.3 993 128 995.8C170.7 998.7 213.3 991.3 256 991.7C298.7 992 341.3 1000 384 1001.7C426.7 1003.3 469.3 998.7 512 1002.2C554.7 1005.7 597.3 1017.3 640 1012.5C682.7 1007.7 725.3 986.3 768 975.7C810.7 965 853.3 965 896 965.2C938.7 965.3 981.3 965.7 1024 976.5C1066.7 987.3 1109.3 1008.7 1152 1014.2C1194.7 1019.7 1237.3 1009.3 1280 1000.8C1322.7 992.3 1365.3 985.7 1408 989.7C1450.7 993.7 1493.3 1008.3 1536 1017C1578.7 1025.7 1621.3 1028.3 1664 1024.8C1706.7 1021.3 1749.3 1011.7 1792 1008.5C1834.7 1005.3 1877.3 1008.7 1898.7 1010.3L1920 1012L1920 1081L1898.7 1081C1877.3 1081 1834.7 1081 1792 1081C1749.3 1081 1706.7 1081 1664 1081C1621.3 1081 1578.7 1081 1536 1081C1493.3 1081 1450.7 1081 1408 1081C1365.3 1081 1322.7 1081 1280 1081C1237.3 1081 1194.7 1081 1152 1081C1109.3 1081 1066.7 1081 1024 1081C981.3 1081 938.7 1081 896 1081C853.3 1081 810.7 1081 768 1081C725.3 1081 682.7 1081 640 1081C597.3 1081 554.7 1081 512 1081C469.3 1081 426.7 1081 384 1081C341.3 1081 298.7 1081 256 1081C213.3 1081 170.7 1081 128 1081C85.3 1081 42.7 1081 21.3 1081L0 1081Z" fill="#ff0a54"></path>
</svg>