<!--?xml version="1.0" standalone="no"?-->
              <svg id="sw-js-blob-svg" viewBox="0 0 100 100" xmlns="http://www.w3.org/2000/svg" version="1.1">
                    <defs> 
                        <linearGradient id="sw-gradient" x1="0" x2="1" y1="1" y2="0">
                            <stop id="stop1" stop-color="rgba(243, 155, 109, 1)" offset="0%"></stop>
                            <stop id="stop2" stop-color="rgba(237, 231, 191, 1)" offset="100%"></stop>
                        </linearGradient>
                    </defs>
                <path fill="url(#sw-gradient)" d="M20.2,-28C26.6,-23.2,32.4,-17.8,34.3,-11.3C36.1,-4.8,34,2.8,31.6,10.3C29.2,17.8,26.5,25.3,21.2,28.6C15.9,31.9,7.9,31,-0.4,31.6C-8.8,32.2,-17.7,34.3,-22.8,31C-28,27.6,-29.4,18.8,-31.8,10.6C-34.2,2.3,-37.4,-5.5,-35.8,-12C-34.1,-18.5,-27.6,-23.8,-20.9,-28.5C-14.1,-33.2,-7,-37.3,-0.1,-37.2C6.9,-37.1,13.8,-32.8,20.2,-28Z" width="100%" height="100%" transform="translate(50 50)" stroke-width="0" style="transition: all 0.3s ease 0s;" stroke="url(#sw-gradient)"></path>
              </svg>