<svg id="visual" viewBox="0 100 1920 1080" width="1920" height="1080" xmlns="http://www.w3.org/2000/svg" xmlns:xlink="http://www.w3.org/1999/xlink" version="1.1"><rect x="0" y="0" width="1920" height="1080" fill="#001220"></rect><path d="M0 750L21.3 740.3C42.7 730.7 85.3 711.3 128 705.8C170.7 700.3 213.3 708.7 256 716.7C298.7 724.7 341.3 732.3 384 741.8C426.7 751.3 469.3 762.7 512 763.7C554.7 764.7 597.3 755.3 640 747.3C682.7 739.3 725.3 732.7 768 713.5C810.7 694.3 853.3 662.7 896 655.5C938.7 648.3 981.3 665.7 1024 666.2C1066.7 666.7 1109.3 650.3 1152 654.5C1194.7 658.7 1237.3 683.3 1280 679.2C1322.7 675 1365.3 642 1408 637.2C1450.7 632.3 1493.3 655.7 1536 676.7C1578.7 697.7 1621.3 716.3 1664 707.2C1706.7 698 1749.3 661 1792 655.8C1834.7 650.7 1877.3 677.3 1898.7 690.7L1920 704L1920 1081L1898.7 1081C1877.3 1081 1834.7 1081 1792 1081C1749.3 1081 1706.7 1081 1664 1081C1621.3 1081 1578.7 1081 1536 1081C1493.3 1081 1450.7 1081 1408 1081C1365.3 1081 1322.7 1081 1280 1081C1237.3 1081 1194.7 1081 1152 1081C1109.3 1081 1066.7 1081 1024 1081C981.3 1081 938.7 1081 896 1081C853.3 1081 810.7 1081 768 1081C725.3 1081 682.7 1081 640 1081C597.3 1081 554.7 1081 512 1081C469.3 1081 426.7 1081 384 1081C341.3 1081 298.7 1081 256 1081C213.3 1081 170.7 1081 128 1081C85.3 1081 42.7 1081 21.3 1081L0 1081Z" fill="#401f7a"></path><path d="M0 778L21.3 773.3C42.7 768.7 85.3 759.3 128 745.8C170.7 732.3 213.3 714.7 256 723.8C298.7 733 341.3 769 384 769.2C426.7 769.3 469.3 733.7 512 723.5C554.7 713.3 597.3 728.7 640 741.2C682.7 753.7 725.3 763.3 768 777.5C810.7 791.7 853.3 810.3 896 798.3C938.7 786.3 981.3 743.7 1024 742.2C1066.7 740.7 1109.3 780.3 1152 796.5C1194.7 812.7 1237.3 805.3 1280 799C1322.7 792.7 1365.3 787.3 1408 779.3C1450.7 771.3 1493.3 760.7 1536 763C1578.7 765.3 1621.3 780.7 1664 783.7C1706.7 786.7 1749.3 777.3 1792 769.2C1834.7 761 1877.3 754 1898.7 750.5L1920 747L1920 1081L1898.7 1081C1877.3 1081 1834.7 1081 1792 1081C1749.3 1081 1706.7 1081 1664 1081C1621.3 1081 1578.7 1081 1536 1081C1493.3 1081 1450.7 1081 1408 1081C1365.3 1081 1322.7 1081 1280 1081C1237.3 1081 1194.7 1081 1152 1081C1109.3 1081 1066.7 1081 1024 1081C981.3 1081 938.7 1081 896 1081C853.3 1081 810.7 1081 768 1081C725.3 1081 682.7 1081 640 1081C597.3 1081 554.7 1081 512 1081C469.3 1081 426.7 1081 384 1081C341.3 1081 298.7 1081 256 1081C213.3 1081 170.7 1081 128 1081C85.3 1081 42.7 1081 21.3 1081L0 1081Z" fill="#ab0067"></path><path d="M0 796L21.3 801.3C42.7 806.7 85.3 817.3 128 835C170.7 852.7 213.3 877.3 256 889.2C298.7 901 341.3 900 384 896.3C426.7 892.7 469.3 886.3 512 883.5C554.7 880.7 597.3 881.3 640 869.7C682.7 858 725.3 834 768 833C810.7 832 853.3 854 896 862.5C938.7 871 981.3 866 1024 868.7C1066.7 871.3 1109.3 881.7 1152 889.3C1194.7 897 1237.3 902 1280 904.2C1322.7 906.3 1365.3 905.7 1408 891.2C1450.7 876.7 1493.3 848.3 1536 826.5C1578.7 804.7 1621.3 789.3 1664 785.8C1706.7 782.3 1749.3 790.7 1792 805.8C1834.7 821 1877.3 843 1898.7 854L1920 865L1920 1081L1898.7 1081C1877.3 1081 1834.7 1081 1792 1081C1749.3 1081 1706.7 1081 1664 1081C1621.3 1081 1578.7 1081 1536 1081C1493.3 1081 1450.7 1081 1408 1081C1365.3 1081 1322.7 1081 1280 1081C1237.3 1081 1194.7 1081 1152 1081C1109.3 1081 1066.7 1081 1024 1081C981.3 1081 938.7 1081 896 1081C853.3 1081 810.7 1081 768 1081C725.3 1081 682.7 1081 640 1081C597.3 1081 554.7 1081 512 1081C469.3 1081 426.7 1081 384 1081C341.3 1081 298.7 1081 256 1081C213.3 1081 170.7 1081 128 1081C85.3 1081 42.7 1081 21.3 1081L0 1081Z" fill="#df4336"></path><path d="M0 949L21.3 944.5C42.7 940 85.3 931 128 927.5C170.7 924 213.3 926 256 919.3C298.7 912.7 341.3 897.3 384 891.5C426.7 885.7 469.3 889.3 512 887.7C554.7 886 597.3 879 640 891.8C682.7 904.7 725.3 937.3 768 952C810.7 966.7 853.3 963.3 896 945.8C938.7 928.3 981.3 896.7 1024 894C1066.7 891.3 1109.3 917.7 1152 919.2C1194.7 920.7 1237.3 897.3 1280 890.3C1322.7 883.3 1365.3 892.7 1408 904C1450.7 915.3 1493.3 928.7 1536 921.8C1578.7 915 1621.3 888 1664 893.3C1706.7 898.7 1749.3 936.3 1792 951.3C1834.7 966.3 1877.3 958.7 1898.7 954.8L1920 951L1920 1081L1898.7 1081C1877.3 1081 1834.7 1081 1792 1081C1749.3 1081 1706.7 1081 1664 1081C1621.3 1081 1578.7 1081 1536 1081C1493.3 1081 1450.7 1081 1408 1081C1365.3 1081 1322.7 1081 1280 1081C1237.3 1081 1194.7 1081 1152 1081C1109.3 1081 1066.7 1081 1024 1081C981.3 1081 938.7 1081 896 1081C853.3 1081 810.7 1081 768 1081C725.3 1081 682.7 1081 640 1081C597.3 1081 554.7 1081 512 1081C469.3 1081 426.7 1081 384 1081C341.3 1081 298.7 1081 256 1081C213.3 1081 170.7 1081 128 1081C85.3 1081 42.7 1081 21.3 1081L0 1081Z" fill="#d99500"></path><path d="M0 1036L21.3 1036.5C42.7 1037 85.3 1038 128 1033.8C170.7 1029.7 213.3 1020.3 256 1013.8C298.7 1007.3 341.3 1003.7 384 1004C426.7 1004.3 469.3 1008.7 512 1014.5C554.7 1020.3 597.3 1027.7 640 1020.5C682.7 1013.3 725.3 991.7 768 984C810.7 976.3 853.3 982.7 896 987C938.7 991.3 981.3 993.7 1024 995.7C1066.7 997.7 1109.3 999.3 1152 990.8C1194.7 982.3 1237.3 963.7 1280 965.3C1322.7 967 1365.3 989 1408 988C1450.7 987 1493.3 963 1536 952.3C1578.7 941.7 1621.3 944.3 1664 961.5C1706.7 978.7 1749.3 1010.3 1792 1016.8C1834.7 1023.3 1877.3 1004.7 1898.7 995.3L1920 986L1920 1081L1898.7 1081C1877.3 1081 1834.7 1081 1792 1081C1749.3 1081 1706.7 1081 1664 1081C1621.3 1081 1578.7 1081 1536 1081C1493.3 1081 1450.7 1081 1408 1081C1365.3 1081 1322.7 1081 1280 1081C1237.3 1081 1194.7 1081 1152 1081C1109.3 1081 1066.7 1081 1024 1081C981.3 1081 938.7 1081 896 1081C853.3 1081 810.7 1081 768 1081C725.3 1081 682.7 1081 640 1081C597.3 1081 554.7 1081 512 1081C469.3 1081 426.7 1081 384 1081C341.3 1081 298.7 1081 256 1081C213.3 1081 170.7 1081 128 1081C85.3 1081 42.7 1081 21.3 1081L0 1081Z" fill="#9bde28"></path></svg>