<svg id="visual" viewBox="0 50 960 540" width="1920" height="1080" xmlns="http://www.w3.org/2000/svg" xmlns:xlink="http://www.w3.org/1999/xlink" version="1.1"><rect x="0" y="0" width="960" height="540" fill="#001220"></rect><path d="M0 372L22.8 363.3C45.7 354.7 91.3 337.3 137 331.8C182.7 326.3 228.3 332.7 274 332.5C319.7 332.3 365.3 325.7 411.2 325.8C457 326 503 333 548.8 346.3C594.7 359.7 640.3 379.3 686 381.7C731.7 384 777.3 369 823 358.7C868.7 348.3 914.3 342.7 937.2 339.8L960 337L960 541L937.2 541C914.3 541 868.7 541 823 541C777.3 541 731.7 541 686 541C640.3 541 594.7 541 548.8 541C503 541 457 541 411.2 541C365.3 541 319.7 541 274 541C228.3 541 182.7 541 137 541C91.3 541 45.7 541 22.8 541L0 541Z" fill="#9eb57d"></path><path d="M0 357L22.8 363C45.7 369 91.3 381 137 381C182.7 381 228.3 369 274 365.2C319.7 361.3 365.3 365.7 411.2 376.5C457 387.3 503 404.7 548.8 413.3C594.7 422 640.3 422 686 416.8C731.7 411.7 777.3 401.3 823 396C868.7 390.7 914.3 390.3 937.2 390.2L960 390L960 541L937.2 541C914.3 541 868.7 541 823 541C777.3 541 731.7 541 686 541C640.3 541 594.7 541 548.8 541C503 541 457 541 411.2 541C365.3 541 319.7 541 274 541C228.3 541 182.7 541 137 541C91.3 541 45.7 541 22.8 541L0 541Z" fill="#66a786"></path><path d="M0 447L22.8 442.3C45.7 437.7 91.3 428.3 137 421.3C182.7 414.3 228.3 409.7 274 405.8C319.7 402 365.3 399 411.2 403.3C457 407.7 503 419.3 548.8 423.3C594.7 427.3 640.3 423.7 686 425.3C731.7 427 777.3 434 823 433.7C868.7 433.3 914.3 425.7 937.2 421.8L960 418L960 541L937.2 541C914.3 541 868.7 541 823 541C777.3 541 731.7 541 686 541C640.3 541 594.7 541 548.8 541C503 541 457 541 411.2 541C365.3 541 319.7 541 274 541C228.3 541 182.7 541 137 541C91.3 541 45.7 541 22.8 541L0 541Z" fill="#349593"></path><path d="M0 433L22.8 433.7C45.7 434.3 91.3 435.7 137 441.2C182.7 446.7 228.3 456.3 274 457.5C319.7 458.7 365.3 451.3 411.2 446.7C457 442 503 440 548.8 438.2C594.7 436.3 640.3 434.7 686 434.7C731.7 434.7 777.3 436.3 823 444.5C868.7 452.7 914.3 467.3 937.2 474.7L960 482L960 541L937.2 541C914.3 541 868.7 541 823 541C777.3 541 731.7 541 686 541C640.3 541 594.7 541 548.8 541C503 541 457 541 411.2 541C365.3 541 319.7 541 274 541C228.3 541 182.7 541 137 541C91.3 541 45.7 541 22.8 541L0 541Z" fill="#207f99"></path><path d="M0 493L22.8 496.2C45.7 499.3 91.3 505.7 137 504.2C182.7 502.7 228.3 493.3 274 491C319.7 488.7 365.3 493.3 411.2 492.3C457 491.3 503 484.7 548.8 485.8C594.7 487 640.3 496 686 498.8C731.7 501.7 777.3 498.3 823 499C868.7 499.7 914.3 504.3 937.2 506.7L960 509L960 541L937.2 541C914.3 541 868.7 541 823 541C777.3 541 731.7 541 686 541C640.3 541 594.7 541 548.8 541C503 541 457 541 411.2 541C365.3 541 319.7 541 274 541C228.3 541 182.7 541 137 541C91.3 541 45.7 541 22.8 541L0 541Z" fill="#3d678f"></path></svg>