<svg id="visual" viewBox="0 0 1920 1080" width="1920" height="1080" xmlns="http://www.w3.org/2000/svg" xmlns:xlink="http://www.w3.org/1999/xlink" version="1.1"><rect x="0" y="0" width="1920" height="1080" fill="#001220"></rect><path d="M0 742L18.8 718.5C37.7 695 75.3 648 113 629.8C150.7 611.7 188.3 622.3 226 648.8C263.7 675.3 301.3 717.7 339 732.8C376.7 748 414.3 736 452 724C489.7 712 527.3 700 565 697.3C602.7 694.7 640.3 701.3 678 705.7C715.7 710 753.3 712 791 712.8C828.7 713.7 866.3 713.3 903.8 701.5C941.3 689.7 978.7 666.3 1016.2 652.5C1053.7 638.7 1091.3 634.3 1129 636.5C1166.7 638.7 1204.3 647.3 1242 640C1279.7 632.7 1317.3 609.3 1355 606.8C1392.7 604.3 1430.3 622.7 1468 629.7C1505.7 636.7 1543.3 632.3 1581 638.7C1618.7 645 1656.3 662 1694 654.7C1731.7 647.3 1769.3 615.7 1807 607.7C1844.7 599.7 1882.3 615.3 1901.2 623.2L1920 631L1920 1081L1901.2 1081C1882.3 1081 1844.7 1081 1807 1081C1769.3 1081 1731.7 1081 1694 1081C1656.3 1081 1618.7 1081 1581 1081C1543.3 1081 1505.7 1081 1468 1081C1430.3 1081 1392.7 1081 1355 1081C1317.3 1081 1279.7 1081 1242 1081C1204.3 1081 1166.7 1081 1129 1081C1091.3 1081 1053.7 1081 1016.2 1081C978.7 1081 941.3 1081 903.8 1081C866.3 1081 828.7 1081 791 1081C753.3 1081 715.7 1081 678 1081C640.3 1081 602.7 1081 565 1081C527.3 1081 489.7 1081 452 1081C414.3 1081 376.7 1081 339 1081C301.3 1081 263.7 1081 226 1081C188.3 1081 150.7 1081 113 1081C75.3 1081 37.7 1081 18.8 1081L0 1081Z" fill="#001122"></path><path d="M0 740L18.8 733.8C37.7 727.7 75.3 715.3 113 700.7C150.7 686 188.3 669 226 654.8C263.7 640.7 301.3 629.3 339 637.2C376.7 645 414.3 672 452 677.5C489.7 683 527.3 667 565 680C602.7 693 640.3 735 678 744C715.7 753 753.3 729 791 704.5C828.7 680 866.3 655 903.8 644.2C941.3 633.3 978.7 636.7 1016.2 637.7C1053.7 638.7 1091.3 637.3 1129 649.8C1166.7 662.3 1204.3 688.7 1242 696C1279.7 703.3 1317.3 691.7 1355 694.8C1392.7 698 1430.3 716 1468 707.8C1505.7 699.7 1543.3 665.3 1581 674.8C1618.7 684.3 1656.3 737.7 1694 758.3C1731.7 779 1769.3 767 1807 747.2C1844.7 727.3 1882.3 699.7 1901.2 685.8L1920 672L1920 1081L1901.2 1081C1882.3 1081 1844.7 1081 1807 1081C1769.3 1081 1731.7 1081 1694 1081C1656.3 1081 1618.7 1081 1581 1081C1543.3 1081 1505.7 1081 1468 1081C1430.3 1081 1392.7 1081 1355 1081C1317.3 1081 1279.7 1081 1242 1081C1204.3 1081 1166.7 1081 1129 1081C1091.3 1081 1053.7 1081 1016.2 1081C978.7 1081 941.3 1081 903.8 1081C866.3 1081 828.7 1081 791 1081C753.3 1081 715.7 1081 678 1081C640.3 1081 602.7 1081 565 1081C527.3 1081 489.7 1081 452 1081C414.3 1081 376.7 1081 339 1081C301.3 1081 263.7 1081 226 1081C188.3 1081 150.7 1081 113 1081C75.3 1081 37.7 1081 18.8 1081L0 1081Z" fill="#061830"></path><path d="M0 781L18.8 782C37.7 783 75.3 785 113 776.8C150.7 768.7 188.3 750.3 226 735.8C263.7 721.3 301.3 710.7 339 712.7C376.7 714.7 414.3 729.3 452 733.7C489.7 738 527.3 732 565 724.7C602.7 717.3 640.3 708.7 678 702.7C715.7 696.7 753.3 693.3 791 713C828.7 732.7 866.3 775.3 903.8 774C941.3 772.7 978.7 727.3 1016.2 726.8C1053.7 726.3 1091.3 770.7 1129 767.3C1166.7 764 1204.3 713 1242 690.2C1279.7 667.3 1317.3 672.7 1355 678C1392.7 683.3 1430.3 688.7 1468 694.2C1505.7 699.7 1543.3 705.3 1581 713.7C1618.7 722 1656.3 733 1694 742.2C1731.7 751.3 1769.3 758.7 1807 744.8C1844.7 731 1882.3 696 1901.2 678.5L1920 661L1920 1081L1901.2 1081C1882.3 1081 1844.7 1081 1807 1081C1769.3 1081 1731.7 1081 1694 1081C1656.3 1081 1618.7 1081 1581 1081C1543.3 1081 1505.7 1081 1468 1081C1430.3 1081 1392.7 1081 1355 1081C1317.3 1081 1279.7 1081 1242 1081C1204.3 1081 1166.7 1081 1129 1081C1091.3 1081 1053.7 1081 1016.2 1081C978.7 1081 941.3 1081 903.8 1081C866.3 1081 828.7 1081 791 1081C753.3 1081 715.7 1081 678 1081C640.3 1081 602.7 1081 565 1081C527.3 1081 489.7 1081 452 1081C414.3 1081 376.7 1081 339 1081C301.3 1081 263.7 1081 226 1081C188.3 1081 150.7 1081 113 1081C75.3 1081 37.7 1081 18.8 1081L0 1081Z" fill="#111e3d"></path><path d="M0 761L18.8 758.2C37.7 755.3 75.3 749.7 113 743.2C150.7 736.7 188.3 729.3 226 745.5C263.7 761.7 301.3 801.3 339 814.8C376.7 828.3 414.3 815.7 452 810.7C489.7 805.7 527.3 808.3 565 814.7C602.7 821 640.3 831 678 829C715.7 827 753.3 813 791 800.5C828.7 788 866.3 777 903.8 783.3C941.3 789.7 978.7 813.3 1016.2 802.8C1053.7 792.3 1091.3 747.7 1129 735C1166.7 722.3 1204.3 741.7 1242 762.2C1279.7 782.7 1317.3 804.3 1355 802C1392.7 799.7 1430.3 773.3 1468 771.3C1505.7 769.3 1543.3 791.7 1581 783.5C1618.7 775.3 1656.3 736.7 1694 723.7C1731.7 710.7 1769.3 723.3 1807 724.7C1844.7 726 1882.3 716 1901.2 711L1920 706L1920 1081L1901.2 1081C1882.3 1081 1844.7 1081 1807 1081C1769.3 1081 1731.7 1081 1694 1081C1656.3 1081 1618.7 1081 1581 1081C1543.3 1081 1505.7 1081 1468 1081C1430.3 1081 1392.7 1081 1355 1081C1317.3 1081 1279.7 1081 1242 1081C1204.3 1081 1166.7 1081 1129 1081C1091.3 1081 1053.7 1081 1016.2 1081C978.7 1081 941.3 1081 903.8 1081C866.3 1081 828.7 1081 791 1081C753.3 1081 715.7 1081 678 1081C640.3 1081 602.7 1081 565 1081C527.3 1081 489.7 1081 452 1081C414.3 1081 376.7 1081 339 1081C301.3 1081 263.7 1081 226 1081C188.3 1081 150.7 1081 113 1081C75.3 1081 37.7 1081 18.8 1081L0 1081Z" fill="#20234a"></path><path d="M0 757L18.8 758.5C37.7 760 75.3 763 113 767C150.7 771 188.3 776 226 789.5C263.7 803 301.3 825 339 818.5C376.7 812 414.3 777 452 764.2C489.7 751.3 527.3 760.7 565 778.8C602.7 797 640.3 824 678 818.7C715.7 813.3 753.3 775.7 791 778.5C828.7 781.3 866.3 824.7 903.8 840.8C941.3 857 978.7 846 1016.2 844.5C1053.7 843 1091.3 851 1129 852C1166.7 853 1204.3 847 1242 830C1279.7 813 1317.3 785 1355 770.3C1392.7 755.7 1430.3 754.3 1468 755.3C1505.7 756.3 1543.3 759.7 1581 760.2C1618.7 760.7 1656.3 758.3 1694 758.8C1731.7 759.3 1769.3 762.7 1807 776C1844.7 789.3 1882.3 812.7 1901.2 824.3L1920 836L1920 1081L1901.2 1081C1882.3 1081 1844.7 1081 1807 1081C1769.3 1081 1731.7 1081 1694 1081C1656.3 1081 1618.7 1081 1581 1081C1543.3 1081 1505.7 1081 1468 1081C1430.3 1081 1392.7 1081 1355 1081C1317.3 1081 1279.7 1081 1242 1081C1204.3 1081 1166.7 1081 1129 1081C1091.3 1081 1053.7 1081 1016.2 1081C978.7 1081 941.3 1081 903.8 1081C866.3 1081 828.7 1081 791 1081C753.3 1081 715.7 1081 678 1081C640.3 1081 602.7 1081 565 1081C527.3 1081 489.7 1081 452 1081C414.3 1081 376.7 1081 339 1081C301.3 1081 263.7 1081 226 1081C188.3 1081 150.7 1081 113 1081C75.3 1081 37.7 1081 18.8 1081L0 1081Z" fill="#312756"></path><path d="M0 861L18.8 859.8C37.7 858.7 75.3 856.3 113 860.8C150.7 865.3 188.3 876.7 226 881.8C263.7 887 301.3 886 339 882.5C376.7 879 414.3 873 452 871C489.7 869 527.3 871 565 864.2C602.7 857.3 640.3 841.7 678 834C715.7 826.3 753.3 826.7 791 830.8C828.7 835 866.3 843 903.8 850.2C941.3 857.3 978.7 863.7 1016.2 852C1053.7 840.3 1091.3 810.7 1129 814C1166.7 817.3 1204.3 853.7 1242 853.2C1279.7 852.7 1317.3 815.3 1355 799.2C1392.7 783 1430.3 788 1468 806.2C1505.7 824.3 1543.3 855.7 1581 865.5C1618.7 875.3 1656.3 863.7 1694 858.5C1731.7 853.3 1769.3 854.7 1807 847.3C1844.7 840 1882.3 824 1901.2 816L1920 808L1920 1081L1901.2 1081C1882.3 1081 1844.7 1081 1807 1081C1769.3 1081 1731.7 1081 1694 1081C1656.3 1081 1618.7 1081 1581 1081C1543.3 1081 1505.7 1081 1468 1081C1430.3 1081 1392.7 1081 1355 1081C1317.3 1081 1279.7 1081 1242 1081C1204.3 1081 1166.7 1081 1129 1081C1091.3 1081 1053.7 1081 1016.2 1081C978.7 1081 941.3 1081 903.8 1081C866.3 1081 828.7 1081 791 1081C753.3 1081 715.7 1081 678 1081C640.3 1081 602.7 1081 565 1081C527.3 1081 489.7 1081 452 1081C414.3 1081 376.7 1081 339 1081C301.3 1081 263.7 1081 226 1081C188.3 1081 150.7 1081 113 1081C75.3 1081 37.7 1081 18.8 1081L0 1081Z" fill="#452a60"></path><path d="M0 852L18.8 860C37.7 868 75.3 884 113 887.8C150.7 891.7 188.3 883.3 226 870.7C263.7 858 301.3 841 339 841C376.7 841 414.3 858 452 869.5C489.7 881 527.3 887 565 880C602.7 873 640.3 853 678 853C715.7 853 753.3 873 791 879C828.7 885 866.3 877 903.8 864.5C941.3 852 978.7 835 1016.2 839.2C1053.7 843.3 1091.3 868.7 1129 871.3C1166.7 874 1204.3 854 1242 852.8C1279.7 851.7 1317.3 869.3 1355 874.2C1392.7 879 1430.3 871 1468 877.5C1505.7 884 1543.3 905 1581 914.2C1618.7 923.3 1656.3 920.7 1694 914C1731.7 907.3 1769.3 896.7 1807 895C1844.7 893.3 1882.3 900.7 1901.2 904.3L1920 908L1920 1081L1901.2 1081C1882.3 1081 1844.7 1081 1807 1081C1769.3 1081 1731.7 1081 1694 1081C1656.3 1081 1618.7 1081 1581 1081C1543.3 1081 1505.7 1081 1468 1081C1430.3 1081 1392.7 1081 1355 1081C1317.3 1081 1279.7 1081 1242 1081C1204.3 1081 1166.7 1081 1129 1081C1091.3 1081 1053.7 1081 1016.2 1081C978.7 1081 941.3 1081 903.8 1081C866.3 1081 828.7 1081 791 1081C753.3 1081 715.7 1081 678 1081C640.3 1081 602.7 1081 565 1081C527.3 1081 489.7 1081 452 1081C414.3 1081 376.7 1081 339 1081C301.3 1081 263.7 1081 226 1081C188.3 1081 150.7 1081 113 1081C75.3 1081 37.7 1081 18.8 1081L0 1081Z" fill="#5a2c68"></path><path d="M0 953L18.8 941C37.7 929 75.3 905 113 889.8C150.7 874.7 188.3 868.3 226 869.8C263.7 871.3 301.3 880.7 339 891.5C376.7 902.3 414.3 914.7 452 914.2C489.7 913.7 527.3 900.3 565 892.5C602.7 884.7 640.3 882.3 678 893.7C715.7 905 753.3 930 791 933.7C828.7 937.3 866.3 919.7 903.8 915.8C941.3 912 978.7 922 1016.2 925.3C1053.7 928.7 1091.3 925.3 1129 913.7C1166.7 902 1204.3 882 1242 875C1279.7 868 1317.3 874 1355 874.3C1392.7 874.7 1430.3 869.3 1468 875.5C1505.7 881.7 1543.3 899.3 1581 906.7C1618.7 914 1656.3 911 1694 910.8C1731.7 910.7 1769.3 913.3 1807 907.3C1844.7 901.3 1882.3 886.7 1901.2 879.3L1920 872L1920 1081L1901.2 1081C1882.3 1081 1844.7 1081 1807 1081C1769.3 1081 1731.7 1081 1694 1081C1656.3 1081 1618.7 1081 1581 1081C1543.3 1081 1505.7 1081 1468 1081C1430.3 1081 1392.7 1081 1355 1081C1317.3 1081 1279.7 1081 1242 1081C1204.3 1081 1166.7 1081 1129 1081C1091.3 1081 1053.7 1081 1016.2 1081C978.7 1081 941.3 1081 903.8 1081C866.3 1081 828.7 1081 791 1081C753.3 1081 715.7 1081 678 1081C640.3 1081 602.7 1081 565 1081C527.3 1081 489.7 1081 452 1081C414.3 1081 376.7 1081 339 1081C301.3 1081 263.7 1081 226 1081C188.3 1081 150.7 1081 113 1081C75.3 1081 37.7 1081 18.8 1081L0 1081Z" fill="#6f2b6d"></path><path d="M0 936L18.8 938.8C37.7 941.7 75.3 947.3 113 948.7C150.7 950 188.3 947 226 942.3C263.7 937.7 301.3 931.3 339 925C376.7 918.7 414.3 912.3 452 919.2C489.7 926 527.3 946 565 958.8C602.7 971.7 640.3 977.3 678 970C715.7 962.7 753.3 942.3 791 938C828.7 933.7 866.3 945.3 903.8 950.7C941.3 956 978.7 955 1016.2 958.5C1053.7 962 1091.3 970 1129 968.2C1166.7 966.3 1204.3 954.7 1242 946.7C1279.7 938.7 1317.3 934.3 1355 935C1392.7 935.7 1430.3 941.3 1468 948C1505.7 954.7 1543.3 962.3 1581 956.8C1618.7 951.3 1656.3 932.7 1694 926.3C1731.7 920 1769.3 926 1807 926.3C1844.7 926.7 1882.3 921.3 1901.2 918.7L1920 916L1920 1081L1901.2 1081C1882.3 1081 1844.7 1081 1807 1081C1769.3 1081 1731.7 1081 1694 1081C1656.3 1081 1618.7 1081 1581 1081C1543.3 1081 1505.7 1081 1468 1081C1430.3 1081 1392.7 1081 1355 1081C1317.3 1081 1279.7 1081 1242 1081C1204.3 1081 1166.7 1081 1129 1081C1091.3 1081 1053.7 1081 1016.2 1081C978.7 1081 941.3 1081 903.8 1081C866.3 1081 828.7 1081 791 1081C753.3 1081 715.7 1081 678 1081C640.3 1081 602.7 1081 565 1081C527.3 1081 489.7 1081 452 1081C414.3 1081 376.7 1081 339 1081C301.3 1081 263.7 1081 226 1081C188.3 1081 150.7 1081 113 1081C75.3 1081 37.7 1081 18.8 1081L0 1081Z" fill="#862a70"></path><path d="M0 944L18.8 953.5C37.7 963 75.3 982 113 987.7C150.7 993.3 188.3 985.7 226 979.8C263.7 974 301.3 970 339 968.2C376.7 966.3 414.3 966.7 452 973.7C489.7 980.7 527.3 994.3 565 999.2C602.7 1004 640.3 1000 678 987.7C715.7 975.3 753.3 954.7 791 956.3C828.7 958 866.3 982 903.8 989.8C941.3 997.7 978.7 989.3 1016.2 980C1053.7 970.7 1091.3 960.3 1129 958.3C1166.7 956.3 1204.3 962.7 1242 960.2C1279.7 957.7 1317.3 946.3 1355 952.3C1392.7 958.3 1430.3 981.7 1468 984.3C1505.7 987 1543.3 969 1581 960.5C1618.7 952 1656.3 953 1694 951.7C1731.7 950.3 1769.3 946.7 1807 943.7C1844.7 940.7 1882.3 938.3 1901.2 937.2L1920 936L1920 1081L1901.2 1081C1882.3 1081 1844.7 1081 1807 1081C1769.3 1081 1731.7 1081 1694 1081C1656.3 1081 1618.7 1081 1581 1081C1543.3 1081 1505.7 1081 1468 1081C1430.3 1081 1392.7 1081 1355 1081C1317.3 1081 1279.7 1081 1242 1081C1204.3 1081 1166.7 1081 1129 1081C1091.3 1081 1053.7 1081 1016.2 1081C978.7 1081 941.3 1081 903.8 1081C866.3 1081 828.7 1081 791 1081C753.3 1081 715.7 1081 678 1081C640.3 1081 602.7 1081 565 1081C527.3 1081 489.7 1081 452 1081C414.3 1081 376.7 1081 339 1081C301.3 1081 263.7 1081 226 1081C188.3 1081 150.7 1081 113 1081C75.3 1081 37.7 1081 18.8 1081L0 1081Z" fill="#9c2770"></path><path d="M0 1036L18.8 1032.2C37.7 1028.3 75.3 1020.7 113 1013C150.7 1005.3 188.3 997.7 226 999C263.7 1000.3 301.3 1010.7 339 1015.5C376.7 1020.3 414.3 1019.7 452 1014.5C489.7 1009.3 527.3 999.7 565 1000.7C602.7 1001.7 640.3 1013.3 678 1018C715.7 1022.7 753.3 1020.3 791 1018C828.7 1015.7 866.3 1013.3 903.8 1009.2C941.3 1005 978.7 999 1016.2 997.3C1053.7 995.7 1091.3 998.3 1129 1002C1166.7 1005.7 1204.3 1010.3 1242 1016C1279.7 1021.7 1317.3 1028.3 1355 1031.5C1392.7 1034.7 1430.3 1034.3 1468 1024.7C1505.7 1015 1543.3 996 1581 990.7C1618.7 985.3 1656.3 993.7 1694 1002.2C1731.7 1010.7 1769.3 1019.3 1807 1021.3C1844.7 1023.3 1882.3 1018.7 1901.2 1016.3L1920 1014L1920 1081L1901.2 1081C1882.3 1081 1844.7 1081 1807 1081C1769.3 1081 1731.7 1081 1694 1081C1656.3 1081 1618.7 1081 1581 1081C1543.3 1081 1505.7 1081 1468 1081C1430.3 1081 1392.7 1081 1355 1081C1317.3 1081 1279.7 1081 1242 1081C1204.3 1081 1166.7 1081 1129 1081C1091.3 1081 1053.7 1081 1016.2 1081C978.7 1081 941.3 1081 903.8 1081C866.3 1081 828.7 1081 791 1081C753.3 1081 715.7 1081 678 1081C640.3 1081 602.7 1081 565 1081C527.3 1081 489.7 1081 452 1081C414.3 1081 376.7 1081 339 1081C301.3 1081 263.7 1081 226 1081C188.3 1081 150.7 1081 113 1081C75.3 1081 37.7 1081 18.8 1081L0 1081Z" fill="#b2246d"></path><path d="M0 1061L18.8 1057C37.7 1053 75.3 1045 113 1045.2C150.7 1045.3 188.3 1053.7 226 1058.2C263.7 1062.7 301.3 1063.3 339 1062.5C376.7 1061.7 414.3 1059.3 452 1055.5C489.7 1051.7 527.3 1046.3 565 1043.2C602.7 1040 640.3 1039 678 1039.5C715.7 1040 753.3 1042 791 1043C828.7 1044 866.3 1044 903.8 1041.7C941.3 1039.3 978.7 1034.7 1016.2 1036C1053.7 1037.3 1091.3 1044.7 1129 1049.8C1166.7 1055 1204.3 1058 1242 1055.2C1279.7 1052.3 1317.3 1043.7 1355 1038.2C1392.7 1032.7 1430.3 1030.3 1468 1027.8C1505.7 1025.3 1543.3 1022.7 1581 1020.8C1618.7 1019 1656.3 1018 1694 1022.7C1731.7 1027.3 1769.3 1037.7 1807 1037.2C1844.7 1036.7 1882.3 1025.3 1901.2 1019.7L1920 1014L1920 1081L1901.2 1081C1882.3 1081 1844.7 1081 1807 1081C1769.3 1081 1731.7 1081 1694 1081C1656.3 1081 1618.7 1081 1581 1081C1543.3 1081 1505.7 1081 1468 1081C1430.3 1081 1392.7 1081 1355 1081C1317.3 1081 1279.7 1081 1242 1081C1204.3 1081 1166.7 1081 1129 1081C1091.3 1081 1053.7 1081 1016.2 1081C978.7 1081 941.3 1081 903.8 1081C866.3 1081 828.7 1081 791 1081C753.3 1081 715.7 1081 678 1081C640.3 1081 602.7 1081 565 1081C527.3 1081 489.7 1081 452 1081C414.3 1081 376.7 1081 339 1081C301.3 1081 263.7 1081 226 1081C188.3 1081 150.7 1081 113 1081C75.3 1081 37.7 1081 18.8 1081L0 1081Z" fill="#c62368"></path></svg>