<!--?xml version="1.0" standalone="no"?-->
<svg id="sw-js-blob-svg" viewBox="0 0 100 100" xmlns="http://www.w3.org/2000/svg" version="1.1">                    <defs>                         <linearGradient id="sw-gradient" x1="0" x2="1" y1="1" y2="0">                            <stop id="stop1" stop-color="rgba(255, 87.537, 0, 1)" offset="0%"></stop>                            <stop id="stop2" stop-color="rgba(222.058, 197.192, 31.42, 1)" offset="100%"></stop>                        </linearGradient>                    </defs>                <path fill="url(#sw-gradient)" d="M18.5,-21.7C25.6,-20.4,33.8,-17.1,36.3,-11.4C38.7,-5.7,35.4,2.4,33.1,11.2C30.8,20,29.7,29.6,24.3,35.9C19,42.1,9.5,45,1.4,43C-6.7,41.1,-13.3,34.3,-20,28.5C-26.6,22.6,-33.2,17.8,-35,11.5C-36.9,5.2,-34,-2.4,-30,-8.1C-25.9,-13.8,-20.6,-17.4,-15.4,-19.3C-10.2,-21.2,-5.1,-21.3,0.3,-21.7C5.8,-22.2,11.5,-23,18.5,-21.7Z" width="100%" height="100%" transform="translate(50 50)" stroke-width="0" style="transition: all 0.3s ease 0s;" stroke="url(#sw-gradient)"></path>              </svg>