<svg id="visual" viewBox="0 0 1920 1080" width="1920" height="1080" xmlns="http://www.w3.org/2000/svg" xmlns:xlink="http://www.w3.org/1999/xlink" version="1.1">
<rect x="0" y="0" width="1920" height="1080" fill="#001220"></rect>
<path d="M0 670L45.7 677.2C91.3 684.3 182.7 698.7 274.2 712.8C365.7 727 457.3 741 548.8 729.5C640.3 718 731.7 681 823 660.2C914.3 639.3 1005.7 634.7 1097 660.8C1188.3 687 1279.7 744 1371.2 758C1462.7 772 1554.3 743 1645.8 731.8C1737.3 720.7 1828.7 727.3 1874.3 730.7L1920 734L1920 1081L1874.3 1081C1828.7 1081 1737.3 1081 1645.8 1081C1554.3 1081 1462.7 1081 1371.2 1081C1279.7 1081 1188.3 1081 1097 1081C1005.7 1081 914.3 1081 823 1081C731.7 1081 640.3 1081 548.8 1081C457.3 1081 365.7 1081 274.2 1081C182.7 1081 91.3 1081 45.7 1081L0 1081Z" fill="#fa7268"></path>
<path d="M0 794L45.7 784.2C91.3 774.3 182.7 754.7 274.2 744.7C365.7 734.7 457.3 734.3 548.8 732.8C640.3 731.3 731.7 728.7 823 737.2C914.3 745.7 1005.7 765.3 1097 770.2C1188.3 775 1279.7 765 1371.2 766.7C1462.7 768.3 1554.3 781.7 1645.8 789.7C1737.3 797.7 1828.7 800.3 1874.3 801.7L1920 803L1920 1081L1874.3 1081C1828.7 1081 1737.3 1081 1645.8 1081C1554.3 1081 1462.7 1081 1371.2 1081C1279.7 1081 1188.3 1081 1097 1081C1005.7 1081 914.3 1081 823 1081C731.7 1081 640.3 1081 548.8 1081C457.3 1081 365.7 1081 274.2 1081C182.7 1081 91.3 1081 45.7 1081L0 1081Z" fill="#ef5f67"></path>
<path d="M0 809L45.7 820.7C91.3 832.3 182.7 855.7 274.2 853.3C365.7 851 457.3 823 548.8 822.2C640.3 821.3 731.7 847.7 823 864.7C914.3 881.7 1005.7 889.3 1097 879.8C1188.3 870.3 1279.7 843.7 1371.2 826.7C1462.7 809.7 1554.3 802.3 1645.8 818.7C1737.3 835 1828.7 875 1874.3 895L1920 915L1920 1081L1874.3 1081C1828.7 1081 1737.3 1081 1645.8 1081C1554.3 1081 1462.7 1081 1371.2 1081C1279.7 1081 1188.3 1081 1097 1081C1005.7 1081 914.3 1081 823 1081C731.7 1081 640.3 1081 548.8 1081C457.3 1081 365.7 1081 274.2 1081C182.7 1081 91.3 1081 45.7 1081L0 1081Z" fill="#e34c67"></path>
<path d="M0 885L45.7 899.5C91.3 914 182.7 943 274.2 946.2C365.7 949.3 457.3 926.7 548.8 918.2C640.3 909.7 731.7 915.3 823 920.2C914.3 925 1005.7 929 1097 934.5C1188.3 940 1279.7 947 1371.2 952.8C1462.7 958.7 1554.3 963.3 1645.8 962.5C1737.3 961.7 1828.7 955.3 1874.3 952.2L1920 949L1920 1081L1874.3 1081C1828.7 1081 1737.3 1081 1645.8 1081C1554.3 1081 1462.7 1081 1371.2 1081C1279.7 1081 1188.3 1081 1097 1081C1005.7 1081 914.3 1081 823 1081C731.7 1081 640.3 1081 548.8 1081C457.3 1081 365.7 1081 274.2 1081C182.7 1081 91.3 1081 45.7 1081L0 1081Z" fill="#d53867"></path>
<!-- <path d="M0 983L45.7 986.8C91.3 990.7 182.7 998.3 274.2 995.7C365.7 993 457.3 980 548.8 972.3C640.3 964.7 731.7 962.3 823 968.7C914.3 975 1005.7 990 1097 988.3C1188.3 986.7 1279.7 968.3 1371.2 963.7C1462.7 959 1554.3 968 1645.8 970.5C1737.3 973 1828.7 969 1874.3 967L1920 965L1920 1081L1874.3 1081C1828.7 1081 1737.3 1081 1645.8 1081C1554.3 1081 1462.7 1081 1371.2 1081C1279.7 1081 1188.3 1081 1097 1081C1005.7 1081 914.3 1081 823 1081C731.7 1081 640.3 1081 548.8 1081C457.3 1081 365.7 1081 274.2 1081C182.7 1081 91.3 1081 45.7 1081L0 1081Z" fill="#c62368"></path> -->
</svg>