<svg id="visual" viewBox="0 0 1920 1080" width="1920" height="1080" xmlns="http://www.w3.org/2000/svg" xmlns:xlink="http://www.w3.org/1999/xlink" version="1.1"><rect x="0" y="0" width="1920" height="1080" fill="#001220"></rect><path d="M0 790L20 775C40 760 80 730 120 723.5C160 717 200 734 240 743.3C280 752.7 320 754.3 360 745.8C400 737.3 440 718.7 480 708.7C520 698.7 560 697.3 600 712.3C640 727.3 680 758.7 720 770.2C760 781.7 800 773.3 840 765.8C880 758.3 920 751.7 960 736C1000 720.3 1040 695.7 1080 699.2C1120 702.7 1160 734.3 1200 746C1240 757.7 1280 749.3 1320 739.3C1360 729.3 1400 717.7 1440 709.5C1480 701.3 1520 696.7 1560 696.8C1600 697 1640 702 1680 711C1720 720 1760 733 1800 724.8C1840 716.7 1880 687.3 1900 672.7L1920 658L1920 1081L1900 1081C1880 1081 1840 1081 1800 1081C1760 1081 1720 1081 1680 1081C1640 1081 1600 1081 1560 1081C1520 1081 1480 1081 1440 1081C1400 1081 1360 1081 1320 1081C1280 1081 1240 1081 1200 1081C1160 1081 1120 1081 1080 1081C1040 1081 1000 1081 960 1081C920 1081 880 1081 840 1081C800 1081 760 1081 720 1081C680 1081 640 1081 600 1081C560 1081 520 1081 480 1081C440 1081 400 1081 360 1081C320 1081 280 1081 240 1081C200 1081 160 1081 120 1081C80 1081 40 1081 20 1081L0 1081Z" fill="#941b00"></path><path d="M0 737L20 742.5C40 748 80 759 120 773.2C160 787.3 200 804.7 240 808.5C280 812.3 320 802.7 360 792.7C400 782.7 440 772.3 480 762.5C520 752.7 560 743.3 600 739.2C640 735 680 736 720 729.5C760 723 800 709 840 720.8C880 732.7 920 770.3 960 776C1000 781.7 1040 755.3 1080 758.2C1120 761 1160 793 1200 788.5C1240 784 1280 743 1320 722.5C1360 702 1400 702 1440 712.5C1480 723 1520 744 1560 755.3C1600 766.7 1640 768.3 1680 764.3C1720 760.3 1760 750.7 1800 744.2C1840 737.7 1880 734.3 1900 732.7L1920 731L1920 1081L1900 1081C1880 1081 1840 1081 1800 1081C1760 1081 1720 1081 1680 1081C1640 1081 1600 1081 1560 1081C1520 1081 1480 1081 1440 1081C1400 1081 1360 1081 1320 1081C1280 1081 1240 1081 1200 1081C1160 1081 1120 1081 1080 1081C1040 1081 1000 1081 960 1081C920 1081 880 1081 840 1081C800 1081 760 1081 720 1081C680 1081 640 1081 600 1081C560 1081 520 1081 480 1081C440 1081 400 1081 360 1081C320 1081 280 1081 240 1081C200 1081 160 1081 120 1081C80 1081 40 1081 20 1081L0 1081Z" fill="#b50d27"></path><path d="M0 778L20 783.2C40 788.3 80 798.7 120 813.2C160 827.7 200 846.3 240 855.2C280 864 320 863 360 865.8C400 868.7 440 875.3 480 863.7C520 852 560 822 600 814.5C640 807 680 822 720 819C760 816 800 795 840 799.8C880 804.7 920 835.3 960 849.5C1000 863.7 1040 861.3 1080 853.8C1120 846.3 1160 833.7 1200 834.7C1240 835.7 1280 850.3 1320 844C1360 837.7 1400 810.3 1440 802.7C1480 795 1520 807 1560 813.5C1600 820 1640 821 1680 813.2C1720 805.3 1760 788.7 1800 800.7C1840 812.7 1880 853.3 1900 873.7L1920 894L1920 1081L1900 1081C1880 1081 1840 1081 1800 1081C1760 1081 1720 1081 1680 1081C1640 1081 1600 1081 1560 1081C1520 1081 1480 1081 1440 1081C1400 1081 1360 1081 1320 1081C1280 1081 1240 1081 1200 1081C1160 1081 1120 1081 1080 1081C1040 1081 1000 1081 960 1081C920 1081 880 1081 840 1081C800 1081 760 1081 720 1081C680 1081 640 1081 600 1081C560 1081 520 1081 480 1081C440 1081 400 1081 360 1081C320 1081 280 1081 240 1081C200 1081 160 1081 120 1081C80 1081 40 1081 20 1081L0 1081Z" fill="#d2004d"></path><path d="M0 921L20 918.3C40 915.7 80 910.3 120 900.8C160 891.3 200 877.7 240 874.3C280 871 320 878 360 872.8C400 867.7 440 850.3 480 853.7C520 857 560 881 600 888.5C640 896 680 887 720 889.3C760 891.7 800 905.3 840 903C880 900.7 920 882.3 960 870.2C1000 858 1040 852 1080 859C1120 866 1160 886 1200 894.7C1240 903.3 1280 900.7 1320 894.7C1360 888.7 1400 879.3 1440 879.8C1480 880.3 1520 890.7 1560 886.2C1600 881.7 1640 862.3 1680 862.2C1720 862 1760 881 1800 894.3C1840 907.7 1880 915.3 1900 919.2L1920 923L1920 1081L1900 1081C1880 1081 1840 1081 1800 1081C1760 1081 1720 1081 1680 1081C1640 1081 1600 1081 1560 1081C1520 1081 1480 1081 1440 1081C1400 1081 1360 1081 1320 1081C1280 1081 1240 1081 1200 1081C1160 1081 1120 1081 1080 1081C1040 1081 1000 1081 960 1081C920 1081 880 1081 840 1081C800 1081 760 1081 720 1081C680 1081 640 1081 600 1081C560 1081 520 1081 480 1081C440 1081 400 1081 360 1081C320 1081 280 1081 240 1081C200 1081 160 1081 120 1081C80 1081 40 1081 20 1081L0 1081Z" fill="#e80079"></path><path d="M0 932L20 938.7C40 945.3 80 958.7 120 960C160 961.3 200 950.7 240 952.5C280 954.3 320 968.7 360 969C400 969.3 440 955.7 480 956.3C520 957 560 972 600 971C640 970 680 953 720 940.5C760 928 800 920 840 922.7C880 925.3 920 938.7 960 950.2C1000 961.7 1040 971.3 1080 964.2C1120 957 1160 933 1200 928.8C1240 924.7 1280 940.3 1320 951.5C1360 962.7 1400 969.3 1440 961.5C1480 953.7 1520 931.3 1560 930.5C1600 929.7 1640 950.3 1680 962.8C1720 975.3 1760 979.7 1800 975C1840 970.3 1880 956.7 1900 949.8L1920 943L1920 1081L1900 1081C1880 1081 1840 1081 1800 1081C1760 1081 1720 1081 1680 1081C1640 1081 1600 1081 1560 1081C1520 1081 1480 1081 1440 1081C1400 1081 1360 1081 1320 1081C1280 1081 1240 1081 1200 1081C1160 1081 1120 1081 1080 1081C1040 1081 1000 1081 960 1081C920 1081 880 1081 840 1081C800 1081 760 1081 720 1081C680 1081 640 1081 600 1081C560 1081 520 1081 480 1081C440 1081 400 1081 360 1081C320 1081 280 1081 240 1081C200 1081 160 1081 120 1081C80 1081 40 1081 20 1081L0 1081Z" fill="#ed00b4"></path><path d="M0 975L20 983C40 991 80 1007 120 1014.3C160 1021.7 200 1020.3 240 1022.7C280 1025 320 1031 360 1024.3C400 1017.7 440 998.3 480 993.8C520 989.3 560 999.7 600 1005.7C640 1011.7 680 1013.3 720 1010.3C760 1007.3 800 999.7 840 996.5C880 993.3 920 994.7 960 999.8C1000 1005 1040 1014 1080 1009.5C1120 1005 1160 987 1200 985.5C1240 984 1280 999 1320 998.5C1360 998 1400 982 1440 979.3C1480 976.7 1520 987.3 1560 988C1600 988.7 1640 979.3 1680 980.2C1720 981 1760 992 1800 997C1840 1002 1880 1001 1900 1000.5L1920 1000L1920 1081L1900 1081C1880 1081 1840 1081 1800 1081C1760 1081 1720 1081 1680 1081C1640 1081 1600 1081 1560 1081C1520 1081 1480 1081 1440 1081C1400 1081 1360 1081 1320 1081C1280 1081 1240 1081 1200 1081C1160 1081 1120 1081 1080 1081C1040 1081 1000 1081 960 1081C920 1081 880 1081 840 1081C800 1081 760 1081 720 1081C680 1081 640 1081 600 1081C560 1081 520 1081 480 1081C440 1081 400 1081 360 1081C320 1081 280 1081 240 1081C200 1081 160 1081 120 1081C80 1081 40 1081 20 1081L0 1081Z" fill="#cf00fd"></path></svg>